<mxfile host="app.diagrams.net" modified="2023-11-02T08:12:52.489Z" agent="Mozilla/5.0 (Macintosh; Intel Mac OS X 10_15_7) AppleWebKit/537.36 (KHTML, like Gecko) Chrome/118.0.0.0 Safari/537.36" version="22.0.8" etag="nVfrVoMV624wbZ02UnXh" type="github">
  <diagram name="第 1 页" id="G3DwGFFbe5Sw0M-mtVfM">
    <mxGraphModel>
      <root>
        <mxCell id="0" />
        <mxCell id="1" parent="0" />
      </root>
    </mxGraphModel>
  </diagram>
</mxfile>
